#N canvas 29 39 1411 799 12;
#X obj 29 105 s bela_setDigital;
#X obj 30 58 loadbang;
#X msg 30 80 in 22 \, in 20 \, in 24 \, in 23;
#X obj 717 168 phasor~;
#X obj 216 360 adc~ 3;
#X obj 216 385 *~ 2;
#X obj 394 455 metro 100;
#X obj 394 431 tgl 15 1 empty empty empty 17 7 0 10 -262144 -1 -1 1
1;
#X obj 216 410 expr~ pow(10 \, $v1);
#X text 1069 56 PULSEWIDTH;
#X text 290 36 MARBela a Mutable Instrument's Marble for Bela's Pepper
;
#X text 155 301 KNOB 1 = rate;
#X text 1071 39 KNOB 2 = (must be integrated in Jitter!;
#X obj 157 617 metro;
#X obj 214 529 snapshot~;
#X obj 215 499 expr~ 1/$v1;
#X text 214 476 convert in ms;
#X obj 212 555 * 1000;
#X obj 158 661 random 100;
#X obj 489 585 hsl 128 15 0 100 0 0 empty empty empty -2 -8 0 10 -262144
-1 -1 0 1;
#X text 478 485 BIAS KNOB;
#X obj 485 509 adc~ 5;
#X obj 158 701 expr if($i1<$f2 \, 1 \, 0);
#X text 567 558 BIAS KNOB;
#X obj 1090 505 expr if($i1>$f2 \, 1 \, 0);
#X obj 157 594 tgl 15 1 empty empty empty 17 7 0 10 -262144 -1 -1 1
1;
#X obj 485 533 *~ 100;
#X obj 486 559 snapshot~;
#N canvas 497 276 771 492 midi-clock 0;
#X obj 141 156 loadbang;
#X msg 141 184 hw 0 0 0;
#X obj 141 210 send bela_setMidi;
#X obj 334 144 notein;
#X obj 353 172 sel 100;
#X obj 353 196 s clock;
#X connect 0 0 1 0;
#X connect 1 0 2 0;
#X connect 3 1 4 0;
#X connect 4 0 5 0;
#X restore 29 142 pd midi-clock;
#X text 159 142 Initialise MIDI;
#X obj 66 713 s random;
#X obj 1090 479 r random;
#X obj 488 605 s BIAS;
#X obj 1225 473 r BIAS;
#X obj 157 728 s t3_trig;
#X obj 309 678 r BIAS;
#X obj 1090 532 s t1_trig;
#X text 152 321 it's also the rate of the coin toss;
#X obj 32 173 loadbang;
#X msg 32 200 in 25 \, in 26;
#X obj 32 224 s bela_setDigital;
#X text 148 199 Initialize the buttons;
#N canvas 35 23 1411 850 modeSelection 1;
#X obj 323 123 tgl 15 1 empty empty empty 17 7 0 10 -262144 -1 -1 1
1;
#X obj 337 74 sel 1;
#X obj 316 164 == 1;
#X obj 438 162 == 0;
#X text 24 72 internal clock route;
#X text 680 75 external clock route;
#X obj 337 26 inlet;
#X obj 192 65 inlet~;
#X obj 887 73 inlet~;
#X text 184 39 path 1;
#X text 880 42 path 2;
#X obj 730 407 expr~ if($v1 > $v2 \, 1 \, 0);
#X obj 915 369 adc~ 4;
#X obj 726 555 expr~ if($v1 > $v2 \, 1 \, 0);
#X obj 734 715 expr~ if($v1 > $v2 \, 1 \, 0);
#X obj 579 461 *~;
#X obj 580 654 *~;
#X text 727 504 t2;
#X text 725 627 t1;
#X text 731 796 t3;
#X obj 732 771 dac~ 5;
#X obj 729 482 dac~ 4;
#X obj 727 605 dac~ 3;
#X obj 598 624 r t3_trig;
#X obj 596 431 r t1_trig;
#X obj 293 360 *~;
#X msg 481 241 1;
#X msg 379 253 0;
#X obj 828 247 *~;
#X obj 1238 494 *~;
#X obj 1256 455 r t1_trig;
#X obj 1248 616 *~;
#X obj 1266 577 r t1_trig;
#X obj 727 579 +~;
#X obj 732 745 +~;
#X obj 730 456 +~;
#X obj 439 186 sel 1;
#X obj 317 187 sel 1;
#X msg 309 264 1;
#X msg 431 277 0;
#X connect 0 0 2 0;
#X connect 0 0 3 0;
#X connect 1 0 0 0;
#X connect 2 0 37 0;
#X connect 3 0 36 0;
#X connect 6 0 1 0;
#X connect 7 0 25 0;
#X connect 8 0 28 0;
#X connect 11 0 35 0;
#X connect 12 0 11 1;
#X connect 12 0 13 1;
#X connect 12 0 14 1;
#X connect 13 0 33 0;
#X connect 14 0 34 0;
#X connect 15 0 13 0;
#X connect 16 0 14 0;
#X connect 23 0 16 1;
#X connect 24 0 15 1;
#X connect 25 0 11 0;
#X connect 25 0 15 0;
#X connect 25 0 16 0;
#X connect 26 0 28 1;
#X connect 27 0 28 1;
#X connect 28 0 31 0;
#X connect 28 0 29 0;
#X connect 28 0 35 1;
#X connect 29 0 33 1;
#X connect 30 0 29 1;
#X connect 31 0 34 1;
#X connect 32 0 31 1;
#X connect 33 0 22 0;
#X connect 34 0 20 0;
#X connect 35 0 21 0;
#X connect 36 0 26 0;
#X connect 36 0 39 0;
#X connect 37 0 27 0;
#X connect 37 0 38 0;
#X connect 38 0 25 1;
#X connect 39 0 25 1;
#X restore 765 201 pd modeSelection;
#N canvas 28 23 635 158 buttons 0;
#X obj 45 119 outlet;
#X obj 73 68 delay 3;
#X text 413 60 Read buttons with debounce;
#X obj 44 69 f;
#X obj 185 119 outlet;
#X obj 213 68 delay 3;
#X obj 184 69 f;
#X obj 45 36 r bela_digitalIn26;
#X obj 185 36 r bela_digitalIn25;
#X connect 1 0 3 0;
#X connect 3 0 0 0;
#X connect 5 0 6 0;
#X connect 6 0 4 0;
#X connect 7 0 1 0;
#X connect 7 0 3 1;
#X connect 8 0 5 0;
#X connect 8 0 6 1;
#X restore 751 54 pd buttons;
#N canvas 502 245 547 282 midi_to_Clock 0;
#X obj 303 220 dac~ 6;
#X obj 261 166 vline~;
#X obj 155 23 r clock;
#X obj 82 169 timer;
#X floatatom 82 193 5 0 0 0 - - -;
#X msg 119 125 bang;
#X msg 47 64 bang;
#X obj 161 79 tgl 15 0 empty empty empty 17 7 0 10 -262144 -1 -1 0
1;
#X obj 120 98 spigot;
#X obj 82 215 s BPM_ms;
#X msg 261 140 1 0 \, 0 0 10;
#X obj 231 220 outlet~;
#X text 352 217 TEST OUTPUT CLOCK;
#X connect 1 0 11 0;
#X connect 1 0 0 0;
#X connect 2 0 10 0;
#X connect 2 0 6 0;
#X connect 2 0 7 0;
#X connect 3 0 4 0;
#X connect 4 0 9 0;
#X connect 5 0 3 1;
#X connect 6 0 8 0;
#X connect 6 0 3 0;
#X connect 7 0 8 1;
#X connect 8 0 5 0;
#X connect 10 0 1 0;
#X restore 875 166 pd midi_to_Clock;
#X text 709 147 internal CLOCK;
#X text 870 140 external CLOCK;
#N canvas 347 315 260 227 s_debugger 0;
#X obj 83 100 snapshot~;
#X obj 52 63 metro 100;
#X obj 45 36 tgl 15 1 empty empty empty 17 7 0 10 -262144 -1 -1 1 1
;
#X obj 159 37 inlet~;
#X connect 1 0 0 0;
#X connect 2 0 1 0;
#X connect 3 0 0 0;
#X restore 292 77 pd s_debugger;
#X connect 1 0 2 0;
#X connect 2 0 0 0;
#X connect 3 0 42 0;
#X connect 4 0 5 0;
#X connect 5 0 8 0;
#X connect 6 0 14 0;
#X connect 6 0 27 0;
#X connect 7 0 6 0;
#X connect 8 0 15 0;
#X connect 8 0 3 0;
#X connect 13 0 18 0;
#X connect 14 0 17 0;
#X connect 15 0 14 0;
#X connect 17 0 13 1;
#X connect 18 0 22 0;
#X connect 18 0 30 0;
#X connect 19 0 32 0;
#X connect 21 0 26 0;
#X connect 22 0 34 0;
#X connect 24 0 36 0;
#X connect 25 0 13 0;
#X connect 26 0 27 0;
#X connect 27 0 19 0;
#X connect 31 0 24 0;
#X connect 33 0 24 1;
#X connect 35 0 22 1;
#X connect 38 0 39 0;
#X connect 39 0 40 0;
#X connect 43 1 42 1;
#X connect 44 0 42 2;
#X coords 0 799 1 798 300 190 0;
