#N canvas 28 23 1412 855 12;
#X obj 30 161 s bela_setDigital;
#X obj 30 114 loadbang;
#X msg 30 136 in 22 \, in 20 \, in 24 \, in 23;
#X obj 305 507 phasor~;
#X obj 937 163 expr~ if($v1 > $v2 \, 1 \, 0);
#X obj 286 363 adc~ 3;
#X obj 1090 110 adc~ 4;
#X obj 263 427 *~ 2;
#X obj 103 481 metro 100;
#X obj 103 458 tgl 15 1 empty empty empty 17 7 0 10 -262144 -1 -1 1
1;
#X obj 263 452 expr~ pow(10 \, $v1);
#X text 1080 88 PULSEWIDTH;
#X text 309 110 MARBela a Mutable Instrument's Marble for Bela's Pepper
;
#X obj 855 234 dac~ 4;
#X obj 137 365 hsl 128 15 0 1 0 0 empty empty empty -2 -8 0 10 -262144
-1 -1 11100 1;
#X obj 937 203 oscope~;
#X obj 1196 102 hsl 128 15 0 1 0 0 empty empty empty -2 -8 0 10 -262144
-1 -1 11500 1;
#X text 288 339 KNOB 1 = rate;
#X text 1082 71 KNOB 2 = (must be integrated in Jitter!;
#X obj 158 693 metro;
#X obj 158 641 snapshot~;
#X floatatom 59 724 5 0 0 0 - - -;
#X obj 159 612 expr~ 1/$v1;
#X text 179 588 convert in ms;
#X obj 157 666 * 1000;
#X obj 158 717 random 100;
#X obj 476 680 hsl 128 15 0 100 0 0 empty empty empty -2 -8 0 10 -262144
-1 -1 0 1;
#X text 396 563 BIAS KNOB;
#X obj 403 611 snapshot~;
#X obj 403 587 adc~ 5;
#X obj 158 749 expr if($i1<$f2 \, 1 \, 0);
#X obj 936 380 expr~ if($v1 > $v2 \, 1 \, 0);
#X obj 936 419 oscope~;
#X text 488 644 BIAS KNOB;
#X obj 940 607 expr~ if($v1 > $v2 \, 1 \, 0);
#X obj 940 647 oscope~;
#X obj 671 743 expr if($i1>$f2 \, 1 \, 0);
#X obj 672 777 bng 15 250 50 0 empty empty empty 17 7 0 10 -262144
-1 -1;
#X obj 614 533 *~;
#X obj 683 602 *~;
#X obj 403 635 * 100;
#X text 853 256 t2;
#X text 852 477 t1;
#X text 866 690 t3;
#X obj 855 452 dac~ 3;
#X obj 867 665 dac~ 5;
#X connect 1 0 2 0;
#X connect 2 0 0 0;
#X connect 3 0 4 0;
#X connect 3 0 38 0;
#X connect 3 0 39 0;
#X connect 4 0 15 0;
#X connect 4 0 13 0;
#X connect 5 0 7 0;
#X connect 7 0 10 0;
#X connect 8 0 20 0;
#X connect 8 0 28 0;
#X connect 9 0 8 0;
#X connect 10 0 3 0;
#X connect 10 0 22 0;
#X connect 16 0 4 1;
#X connect 16 0 31 1;
#X connect 16 0 34 1;
#X connect 19 0 25 0;
#X connect 20 0 24 0;
#X connect 22 0 20 0;
#X connect 24 0 21 0;
#X connect 24 0 19 1;
#X connect 25 0 30 0;
#X connect 25 0 36 0;
#X connect 26 0 30 1;
#X connect 26 0 36 1;
#X connect 28 0 40 0;
#X connect 29 0 28 0;
#X connect 30 0 39 1;
#X connect 31 0 32 0;
#X connect 31 0 44 0;
#X connect 34 0 35 0;
#X connect 34 0 45 0;
#X connect 36 0 37 0;
#X connect 36 0 38 1;
#X connect 38 0 31 0;
#X connect 39 0 34 0;
#X connect 40 0 26 0;
#X coords 0 855 1 854 300 190 0;
