#N canvas 28 23 1412 855 12;
#X obj 30 161 s bela_setDigital;
#X obj 30 114 loadbang;
#X msg 30 136 in 22 \, in 20 \, in 24 \, in 23;
#X obj 609 264 phasor~;
#X obj 934 226 expr~ if($v1 > $v2 \, 1 \, 0);
#X obj 607 182 adc~ 3;
#X obj 1123 134 adc~ 4;
#X obj 608 210 *~ 2;
#X obj 111 465 metro 100;
#X obj 111 442 tgl 15 1 empty empty empty 17 7 0 10 -262144 -1 -1 1
1;
#X obj 608 235 expr~ pow(10 \, $v1);
#X text 1085 112 PULSEWIDTH;
#X text 309 110 MARBela a Mutable Instrument's Marble for Bela's Pepper
;
#X text 578 160 KNOB 1 = rate;
#X text 1087 95 KNOB 2 = (must be integrated in Jitter!;
#X obj 158 693 metro;
#X obj 168 625 snapshot~;
#X floatatom 59 724 5 0 0 0 - - -;
#X obj 169 600 expr~ 1/$v1;
#X text 189 576 convert in ms;
#X obj 167 653 * 1000;
#X obj 158 717 random 100;
#X obj 546 774 hsl 128 15 0 100 0 0 empty empty empty -2 -8 0 10 -262144
-1 -1 0 1;
#X text 388 529 BIAS KNOB;
#X obj 395 553 adc~ 5;
#X obj 214 790 expr if($i1<$f2 \, 1 \, 0);
#X obj 936 380 expr~ if($v1 > $v2 \, 1 \, 0);
#X text 534 701 BIAS KNOB;
#X obj 940 607 expr~ if($v1 > $v2 \, 1 \, 0);
#X obj 661 650 expr if($i1>$f2 \, 1 \, 0);
#X obj 605 570 *~;
#X obj 671 597 *~;
#X text 932 273 t2;
#X text 934 431 t1;
#X text 939 659 t3;
#X obj 940 634 dac~ 5;
#X obj 934 251 dac~ 4;
#X obj 936 409 dac~ 3;
#X obj 116 632 tgl 15 1 empty empty empty 17 7 0 10 -262144 -1 -1 1
1;
#X obj 397 635 print bias;
#X obj 396 583 *~ 100;
#X obj 396 609 snapshot~;
#X connect 1 0 2 0;
#X connect 2 0 0 0;
#X connect 3 0 4 0;
#X connect 3 0 30 0;
#X connect 3 0 31 0;
#X connect 4 0 36 0;
#X connect 5 0 7 0;
#X connect 6 0 4 1;
#X connect 6 0 26 1;
#X connect 6 0 28 1;
#X connect 7 0 10 0;
#X connect 8 0 16 0;
#X connect 8 0 41 0;
#X connect 9 0 8 0;
#X connect 10 0 3 0;
#X connect 10 0 18 0;
#X connect 15 0 21 0;
#X connect 16 0 20 0;
#X connect 18 0 16 0;
#X connect 20 0 15 1;
#X connect 20 0 17 0;
#X connect 21 0 25 0;
#X connect 21 0 29 0;
#X connect 22 0 25 1;
#X connect 22 0 29 1;
#X connect 24 0 40 0;
#X connect 25 0 31 1;
#X connect 26 0 37 0;
#X connect 28 0 35 0;
#X connect 29 0 30 1;
#X connect 30 0 26 0;
#X connect 31 0 28 0;
#X connect 38 0 15 0;
#X connect 40 0 41 0;
#X connect 41 0 39 0;
#X connect 41 0 22 0;
#X coords 0 855 1 854 300 190 0;
