#N canvas 35 23 1394 828 12;
#X obj 29 134 s bela_setDigital;
#X obj 30 87 loadbang;
#X msg 30 109 in 22 \, in 20 \, in 24 \, in 23;
#X obj 999 275 phasor~;
#X obj 216 399 adc~ 3;
#X obj 216 422 *~ 2;
#X obj 394 460 tgl 15 1 empty empty empty 17 7 0 10 -262144 -1 -1 1
1;
#X obj 216 447 expr~ pow(10 \, $v1);
#X text 1069 85 PULSEWIDTH;
#X text 290 65 MARBela a Mutable Instrument's Marble for Bela's Pepper
;
#X text 155 338 KNOB 1 = rate;
#X text 1071 68 KNOB 2 = (must be integrated in Jitter!;
#X obj 157 646 metro;
#X obj 214 558 snapshot~;
#X obj 213 584 * 1000;
#X obj 158 690 random 100;
#X obj 488 614 hsl 128 15 0 100 0 0 empty empty empty -2 -8 0 10 -262144
-1 -1 0 1;
#X text 478 514 BIAS KNOB;
#X obj 485 538 adc~ 5;
#X obj 158 730 expr if($i1<$f2 \, 1 \, 0);
#X text 567 587 BIAS KNOB;
#X obj 1090 534 expr if($i1>$f2 \, 1 \, 0);
#X obj 157 623 tgl 15 1 empty empty empty 17 7 0 10 -262144 -1 -1 1
1;
#X obj 485 562 *~ 100;
#X obj 486 588 snapshot~;
#N canvas 497 276 771 492 midi-clock 0;
#X obj 141 156 loadbang;
#X msg 141 184 hw 0 0 0;
#X obj 141 210 send bela_setMidi;
#X obj 334 144 notein;
#X obj 353 172 sel 100;
#X obj 353 196 s clock;
#X connect 0 0 1 0;
#X connect 1 0 2 0;
#X connect 3 1 4 0;
#X connect 4 0 5 0;
#X restore 29 171 pd midi-clock;
#X text 159 171 Initialise MIDI;
#X obj 66 742 s random;
#X obj 1086 501 r random;
#X obj 488 634 s BIAS;
#X obj 1225 502 r BIAS;
#X obj 157 757 s t3_trig;
#X obj 309 707 r BIAS;
#X obj 1090 561 s t1_trig;
#X text 152 358 it's also the rate of the coin toss;
#X obj 32 202 loadbang;
#X msg 32 229 in 25 \, in 26;
#X obj 32 253 s bela_setDigital;
#X text 148 228 Initialize the buttons;
#N canvas 47 90 1393 613 modeSelection 1;
#X text 31 65 internal clock route;
#X obj 337 26 inlet;
#X obj 192 65 inlet~;
#X obj 833 73 inlet~;
#X text 184 39 path 1;
#X text 826 42 path 2;
#X obj 579 461 *~;
#X obj 583 608 *~;
#X text 725 445 t2;
#X text 722 579 t1;
#X text 721 730 t3;
#X obj 722 705 dac~ 5;
#X obj 724 557 dac~ 3;
#X obj 601 584 r t3_trig;
#X obj 597 436 r t1_trig;
#X obj 293 360 *~;
#X obj 828 247 *~;
#X obj 1137 373 *~;
#X obj 1156 349 r t1_trig;
#X obj 1140 496 *~;
#X obj 1158 472 r t1_trig;
#X obj 724 531 +~;
#X obj 722 679 +~;
#X obj 728 397 +~;
#X text 398 26 MODE SELECTION;
#X text 1160 40 Pulse Width;
#N canvas 682 376 602 502 toggling 0;
#X obj 177 28 inlet;
#X obj 107 390 outlet;
#X obj 165 390 outlet;
#X obj 414 390 outlet;
#X obj 468 389 outlet;
#X obj 177 153 tgl 15 1 empty empty empty 17 7 0 10 -262144 -1 -1 1
1;
#X obj 191 104 sel 1;
#X obj 170 194 == 1;
#X obj 292 192 == 0;
#X msg 335 271 1;
#X msg 233 283 0;
#X obj 293 216 sel 1;
#X obj 171 217 sel 1;
#X msg 163 294 1;
#X msg 285 307 0;
#X connect 0 0 6 0;
#X connect 5 0 7 0;
#X connect 5 0 8 0;
#X connect 6 0 5 0;
#X connect 7 0 12 0;
#X connect 8 0 11 0;
#X connect 9 0 4 0;
#X connect 10 0 2 0;
#X connect 11 0 9 0;
#X connect 11 0 14 0;
#X connect 12 0 10 0;
#X connect 12 0 13 0;
#X connect 13 0 1 0;
#X connect 14 0 3 0;
#X restore 347 118 pd toggling;
#X obj 1174 63 adc~ 6;
#X msg 979 153 0.01;
#X obj 978 115 loadbang;
#X obj 728 373 expr~ if($v1 > $v2 \, 1 \, 0);
#X obj 723 508 expr~ if($v1 > $v2 \, 1 \, 0);
#X obj 723 654 expr~ if($v1 > $v2 \, 1 \, 0);
#X text 637 73 external clock route (MIDI);
#X text 1167 112 MAIN CLOCK out (out 4);
#X obj 1133 231 expr~ if($v1 > $v2 \, 1 \, 0);
#X obj 1134 255 +~;
#X obj 1133 183 r~ MainClock;
#X obj 1133 207 phasor~;
#X obj 726 423 dac~ 4;
#X obj 1130 310 dac~ 6;
#X text 1252 285 LED;
#X obj 786 556 dac~ 17;
#X text 798 533 LED;
#X text 800 400 LED;
#X obj 788 423 dac~ 18;
#X text 807 683 LED;
#X obj 795 706 dac~ 21;
#X obj 1240 308 dac~ 13;
#X connect 1 0 26 0;
#X connect 2 0 15 0;
#X connect 3 0 16 0;
#X connect 6 0 31 0;
#X connect 7 0 32 0;
#X connect 13 0 7 1;
#X connect 14 0 6 1;
#X connect 15 0 6 0;
#X connect 15 0 7 0;
#X connect 15 0 30 0;
#X connect 16 0 19 0;
#X connect 16 0 17 0;
#X connect 16 0 23 1;
#X connect 16 0 36 1;
#X connect 17 0 21 1;
#X connect 18 0 17 1;
#X connect 19 0 22 1;
#X connect 20 0 19 1;
#X connect 21 0 12 0;
#X connect 21 0 42 0;
#X connect 22 0 11 0;
#X connect 22 0 47 0;
#X connect 23 0 39 0;
#X connect 23 0 45 0;
#X connect 26 0 15 1;
#X connect 26 1 15 1;
#X connect 26 2 16 1;
#X connect 26 3 16 1;
#X connect 27 0 30 1;
#X connect 27 0 31 1;
#X connect 27 0 32 1;
#X connect 27 0 35 1;
#X connect 29 0 28 0;
#X connect 30 0 23 0;
#X connect 31 0 21 0;
#X connect 32 0 22 0;
#X connect 35 0 36 0;
#X connect 36 0 40 0;
#X connect 36 0 48 0;
#X connect 37 0 38 0;
#X connect 38 0 35 0;
#X restore 1053 327 pd modeSelection;
#N canvas 32 23 635 158 buttons 0;
#X obj 45 119 outlet;
#X obj 73 68 delay 3;
#X text 413 60 Read buttons with debounce;
#X obj 44 69 f;
#X obj 185 119 outlet;
#X obj 213 68 delay 3;
#X obj 184 69 f;
#X obj 45 36 r bela_digitalIn26;
#X obj 185 36 r bela_digitalIn25;
#X connect 1 0 3 0;
#X connect 3 0 0 0;
#X connect 5 0 6 0;
#X connect 6 0 4 0;
#X connect 7 0 1 0;
#X connect 7 0 3 1;
#X connect 8 0 5 0;
#X connect 8 0 6 1;
#X restore 1038 179 pd buttons;
#N canvas 502 245 547 282 midi_to_Clock 0;
#X obj 303 220 dac~ 6;
#X obj 261 166 vline~;
#X obj 155 23 r clock;
#X obj 82 169 timer;
#X floatatom 82 193 5 0 0 0 - - -;
#X msg 119 125 bang;
#X msg 47 64 bang;
#X obj 161 79 tgl 15 0 empty empty empty 17 7 0 10 -262144 -1 -1 0
1;
#X obj 120 98 spigot;
#X obj 82 215 s BPM_ms;
#X msg 261 140 1 0 \, 0 0 10;
#X obj 231 220 outlet~;
#X text 352 217 TEST OUTPUT CLOCK;
#X connect 1 0 11 0;
#X connect 1 0 0 0;
#X connect 2 0 10 0;
#X connect 2 0 6 0;
#X connect 2 0 7 0;
#X connect 3 0 4 0;
#X connect 4 0 9 0;
#X connect 5 0 3 1;
#X connect 6 0 8 0;
#X connect 6 0 3 0;
#X connect 7 0 8 1;
#X connect 8 0 5 0;
#X connect 10 0 1 0;
#X restore 1162 291 pd midi_to_Clock;
#X text 991 254 internal CLOCK;
#X text 1157 265 external CLOCK;
#X text 296 424 frequency;
#X obj 223 645 s intClock_ms;
#X obj 458 192 r intClock_ms;
#X obj 407 194 tgl 15 1 empty empty empty 17 7 0 10 -262144 -1 -1 1
1;
#X obj 427 217 metro;
#X text 220 501 convert in s;
#X text 228 621 convert in ms;
#X obj 215 528 expr~ 1/$v1;
#X obj 339 535 bng 15 250 50 0 empty empty empty 17 7 0 10 -262144
-1 -1;
#X obj 393 483 metro 100;
#X obj 642 186 int;
#X obj 642 104 adc~ 4;
#X obj 394 511 s checkVal;
#X text 436 434 checkVal is needed only for triggering shapshots;
#X obj 642 151 snapshot~;
#X obj 704 110 r checkVal;
#X obj 727 154 bng 15 250 50 0 empty empty empty 17 7 0 10 -262144
-1 -1;
#X obj 417 323 *~;
#X text 715 57 2nd knob regulates the quantity of repetitions;
#X obj 83 527 s~ MainClock;
#X text 452 168 ext Clock in ms;
#X obj 427 240 random 4;
#N canvas 611 329 260 227 s_debugger 0;
#X obj 83 100 snapshot~;
#X obj 52 63 metro 100;
#X obj 45 36 tgl 15 1 empty empty empty 17 7 0 10 -262144 -1 -1 0 1
;
#X obj 159 37 inlet~;
#X connect 1 0 0 0;
#X connect 2 0 1 0;
#X connect 3 0 0 0;
#X restore 31 18 pd s_debugger;
#X obj 432 278 + 1;
#X obj 643 127 *~ 10;
#N canvas 100 53 1028 506 init_LEDS 0;
#X obj 52 122 s bela_setDigital;
#X obj 52 66 loadbang;
#X msg 52 88 out 17 ~ \, out 18 ~ \, out 21 ~ \, out 13 ~ \, out 14
~ \, out 11 ~ \, out 12 ~ \, out 15 ~ \, out 16 ~ \, out 19 ~, f 79
;
#X text 69 28 Initialise the LED pins at signal rate;
#X connect 1 0 2 0;
#X connect 2 0 0 0;
#X restore 30 50 pd init_LEDS;
#X connect 1 0 2 0;
#X connect 2 0 0 0;
#X connect 3 0 39 0;
#X connect 4 0 5 0;
#X connect 5 0 7 0;
#X connect 6 0 53 0;
#X connect 7 0 51 0;
#X connect 7 0 61 0;
#X connect 7 0 63 0;
#X connect 12 0 15 0;
#X connect 13 0 14 0;
#X connect 14 0 12 1;
#X connect 14 0 45 0;
#X connect 15 0 19 0;
#X connect 15 0 27 0;
#X connect 16 0 29 0;
#X connect 18 0 23 0;
#X connect 19 0 31 0;
#X connect 21 0 33 0;
#X connect 22 0 12 0;
#X connect 23 0 24 0;
#X connect 24 0 16 0;
#X connect 28 0 21 0;
#X connect 30 0 21 1;
#X connect 32 0 19 1;
#X connect 35 0 36 0;
#X connect 36 0 37 0;
#X connect 40 1 39 1;
#X connect 41 0 39 2;
#X connect 46 0 48 1;
#X connect 47 0 48 0;
#X connect 48 0 65 0;
#X connect 51 0 13 0;
#X connect 52 0 13 0;
#X connect 53 0 24 0;
#X connect 53 0 52 0;
#X connect 53 0 56 0;
#X connect 54 0 65 1;
#X connect 55 0 68 0;
#X connect 58 0 54 0;
#X connect 59 0 58 0;
#X connect 59 0 60 0;
#X connect 59 0 54 0;
#X connect 61 0 3 0;
#X connect 65 0 67 0;
#X connect 67 0 61 1;
#X connect 68 0 58 0;
#X coords 0 828 1 827 300 190 0;
